<svg xmlns="http://www.w3.org/2000/svg" viewBox="0 0 512 512">
  <defs>
    <linearGradient id="grad512" x1="0%" y1="0%" x2="100%" y2="100%">
      <stop offset="0%" style="stop-color:#14b8a6;stop-opacity:1" />
      <stop offset="100%" style="stop-color:#8b5cf6;stop-opacity:1" />
    </linearGradient>
  </defs>
  
  <!-- Background circle -->
  <circle cx="256" cy="256" r="256" fill="white"/>
  
  <!-- Calendar background -->
  <rect x="96" y="128" width="320" height="295" rx="42" fill="url(#grad512)"/>
  
  <!-- Calendar top bar -->
  <rect x="96" y="128" width="320" height="80" rx="42" fill="#0d9488"/>
  <rect x="96" y="176" width="320" height="32" fill="#0d9488"/>
  
  <!-- Calendar rings -->
  <rect x="160" y="96" width="28" height="80" rx="14" fill="#0d9488"/>
  <rect x="324" y="96" width="28" height="80" rx="14" fill="#0d9488"/>
  
  <!-- Date grid -->
  <rect x="128" y="240" width="42" height="42" rx="8" fill="white" opacity="0.95"/>
  <rect x="192" y="240" width="42" height="42" rx="8" fill="white" opacity="0.95"/>
  <rect x="256" y="240" width="42" height="42" rx="8" fill="white" opacity="0.95"/>
  <rect x="320" y="240" width="42" height="42" rx="8" fill="white" opacity="0.95"/>
  
  <rect x="128" y="304" width="42" height="42" rx="8" fill="white" opacity="0.95"/>
  <rect x="192" y="304" width="42" height="42" rx="8" fill="white" opacity="0.95"/>
  <rect x="256" y="304" width="42" height="42" rx="8" fill="white" opacity="0.95"/>
  <rect x="320" y="304" width="42" height="42" rx="8" fill="white" opacity="0.95"/>
  
  <rect x="128" y="368" width="42" height="42" rx="8" fill="white" opacity="0.95"/>
  <rect x="192" y="368" width="42" height="42" rx="8" fill="white" opacity="0.95"/>
  
  <!-- Checkmark accent -->
  <circle cx="288" cy="384" r="58" fill="#8b5cf6"/>
  <path d="M 256 384 L 278 406 L 320 360" stroke="white" stroke-width="16" fill="none" stroke-linecap="round" stroke-linejoin="round"/>
</svg>
